<svg width="26" height="26" viewBox="0 0 26 26" fill="none" xmlns="http://www.w3.org/2000/svg">
<circle cx="13" cy="13" r="12.5" fill="#8A8C9C" fill-opacity="0.75" stroke="#9397CF"/>
<path d="M13.0004 4.39981C18.0789 4.39982 19.8952 4.69787 20.5395 4.88223C20.8449 4.96964 21.0044 5.22831 21.0541 5.49258C21.6009 8.40276 21.6 11.2899 21.6 13.6C21.6 15.6946 21.1429 18.8769 21.0209 19.6889C20.9979 19.8421 20.9451 20.0066 20.8256 20.1449C20.3456 20.7006 18.5347 22.1995 13.0004 22.1996C7.23134 22.1996 5.50805 20.5705 5.12149 20.0805C5.04832 19.9877 5.00652 19.8845 4.97989 19.7904C4.39841 17.7343 4.39981 15.4483 4.39981 13.6C4.39981 11.0754 4.39984 8.92954 4.95157 5.51992C4.9967 5.241 5.15966 4.96614 5.48087 4.87637C6.14223 4.69178 7.97354 4.39981 13.0004 4.39981Z" fill="white" stroke="#1A1C36" stroke-width="0.4"/>
<line x1="9.95524" y1="16.954" x2="16.5501" y2="15.754" stroke="#1A1C36" stroke-width="0.5"/>
<circle cx="8.80001" cy="11.2" r="1.2" fill="#1A1C36"/>
<circle cx="17.2" cy="11.2" r="1.2" fill="#1A1C36"/>
</svg>
